<?xml version="1.0" encoding="utf-8"?>
<!-- Generator: Adobe Illustrator 27.5.0, SVG Export Plug-In . SVG Version: 6.00 Build 0)  -->
<svg version="1.1" xmlns="http://www.w3.org/2000/svg" xmlns:xlink="http://www.w3.org/1999/xlink" x="0px" y="0px"
	 viewBox="0 0 500 500" style="enable-background:new 0 0 500 500;" xml:space="preserve">
<g id="BACKGROUND">
</g>
<g id="OBJECTS">
	<rect style="fill:#FFFFFF;" width="500" height="500"/>
	<g>
		<path d="M238.401,191.226c6.781,2.864,17.181,3.139,23.174-1.753c5.266-4.299-4.063-11.803-8.154-13.336
			c-6.304-2.362-13.174,0.654-17.723,5.383c-1.357,1.034-2.435,2.223-2.761,3.563C232.164,188.264,236.054,190.234,238.401,191.226z
			 M259.535,187.939c-2.041,1.868-5.366,2.536-8.68,2.607c1.965-2.87,1.66-8.591,0.441-11.567c-0.16-0.391-0.444-0.767-0.787-1.087
			C254.997,179.305,263.378,184.421,259.535,187.939z M236.55,184.244c0.296-0.765,1.072-1.64,2.002-2.487
			c2.556-2.006,5.545-3.656,8.486-4.107c-1.819,2.16-1.698,7.245-1.401,9.299c0.141,0.98,0.338,2.348,0.885,3.388
			c-1.054-0.119-2.04-0.277-2.899-0.45C241.271,189.413,235.018,188.198,236.55,184.244z"/>
		<path d="M200.921,182.65c6.123-2.953-1.2-12.425-4.821-14.869c-5.58-3.766-12.963-2.434-18.489,1.104
			c-1.561,0.689-2.887,1.594-3.515,2.822c-1.493,2.914,1.83,5.736,3.881,7.247C183.904,183.32,193.954,186.011,200.921,182.65z
			 M186.01,176.482c-0.091,0.986-0.219,2.362,0.071,3.501c-0.998-0.361-1.919-0.744-2.714-1.113
			c-2.176-1.009-7.974-3.648-5.563-7.136c0.467-0.675,1.424-1.345,2.526-1.952c2.953-1.355,6.244-2.263,9.209-2.016
			C187.268,169.442,186.2,174.415,186.01,176.482z M193.371,170.05c-0.065-0.417-0.253-0.85-0.512-1.241
			c4.035,2.42,10.993,9.35,6.436,11.874c-2.42,1.34-5.809,1.215-9.048,0.513C192.826,178.863,193.863,173.229,193.371,170.05z"/>
		<path d="M239.753,205.418c0.525-2.041-2.626-2.91-3.156-0.87c-1.425,5.484-4.049,14.222-11.231,14.093
			c-6.923-0.125-7.43-8.413-7.539-14.577c3.584-0.966,7.566-5.423,9.545-7.611c8.169-9.03-8.419-11.404-14.601-10.766
			c-3.732,0.385-6.755,2.48-5.552,6.595c0.769,2.628,2.501,5.951,4.721,8.461c0.568,0.87,1.189,1.668,1.85,2.285
			c-1.002,5.893-2.485,13.068-8.699,14.507c-9.452,2.188-11.787-12.004-11.902-18.465c-0.018-1.013-1.656-1.327-1.841-0.249
			c-1.374,8.037,1.212,21.007,11.048,22.389c6.987,0.982,10.611-4.01,12.71-9.846c0.912,5.164,3.103,9.758,8.833,10.5
			C233.555,223.11,237.818,212.941,239.753,205.418z"/>
		<path d="M218.217,229.537c-1.869,0.172-3.214,1.581-5.166,1.771c-2.324,0.227-4.76-0.567-6.467-2.187
			c-0.629-0.597-1.712-0.007-1.473,0.857c0.817,2.951,3.866,4.42,6.783,4.558c2.504,0.119,6.735-0.704,7.496-3.459
			C219.585,230.373,219.017,229.464,218.217,229.537z"/>
		<path d="M141.811,272.13c-0.074-0.036-0.149-0.069-0.225-0.1c-0.067-0.027-0.134-0.053-0.2-0.08
			c-0.702-0.28-1.666,0.183-2.011,0.819c-3.335,6.145-3.685,13.152-1.627,19.751c0.747,2.395,4.14,1.388,3.709-1.022
			c-1.06-5.926-0.385-11.597,1.174-17.357C142.819,273.444,142.518,272.456,141.811,272.13z"/>
		<path d="M147.403,284.88c-3.418,6.013-5.266,12.764-4.646,19.694c0.237,2.643,4.258,2.742,4.196,0
			c-0.146-6.47,0.493-12.632,2.655-18.764C150.067,284.507,148.069,283.708,147.403,284.88z"/>
		<path d="M156.57,311.165c-0.141-3.96,0.57-7.847,0.88-11.778c0.071-0.906-1.096-0.989-1.531-0.415
			c-5.589,7.382-4.638,18.638-0.593,26.479c1.144,2.218,4.974,0.678,4.09-1.724C157.921,319.663,156.726,315.522,156.57,311.165z"/>
		<path d="M168.09,331.469c-0.723-3.967-0.239-8.33-1.632-12.126c-0.192-0.523-0.832-0.608-1.15-0.15
			c-4.783,6.88-1.071,19.323,2.734,25.851c1.155,1.982,4.733,0.656,3.834-1.616C170.338,339.54,168.842,335.596,168.09,331.469z"/>
		<path d="M247.466,272.828c-0.86-0.428-2.079,0.504-1.435,1.435c4.702,6.805,7.087,13.729,9.644,21.535
			c0.757,2.31,3.942,1.336,3.574-0.985C257.981,286.812,255.373,276.764,247.466,272.828z"/>
		<path d="M248.125,291.76c-0.269-0.198-0.668,0.069-0.658,0.377c0.132,3.862,1.944,7.439,2.943,11.137
			c1.131,4.183,1.632,8.499,2.32,12.769c0.305,1.891,3.035,1.267,3.159-0.428C256.431,308.202,254.535,296.469,248.125,291.76z"/>
		<path d="M243.64,313.457c-0.498-0.346-1.277,0.11-1.236,0.709c0.168,2.45,1.135,4.834,1.682,7.228
			c0.665,2.909,0.921,5.861,1.044,8.837c0.122,2.972,4.473,2.969,4.615,0C250.009,324.705,248.513,316.843,243.64,313.457z"/>
		<path d="M237.61,333.85c0.911,3.083,1.507,5.969,1.309,9.211c-0.132,2.172,3.304,2.185,3.391,0c0.14-3.493-0.535-7.175-2.4-10.181
			C239.174,331.695,237.194,332.446,237.61,333.85z"/>
		<path d="M193.654,286.444c-1.343,5.458-2.326,10.89-3.164,16.447c-0.342,2.269,3.088,3.293,3.506,0.967
			c1.035-5.749,1.605-11.315,1.512-17.163C195.492,285.651,193.914,285.386,193.654,286.444z"/>
		<path d="M379.133,70.506c-9.888-6.003-21.462-3.111-30.25,3.455c-9.697,7.245-17.179,17.866-23.103,28.291
			c-6.464,11.377-11.163,23.802-13.78,36.624c-5.373,26.326-1.997,54.184,10.294,77.984c-12.644-10.306-28.028-16.791-44.551-18.797
			c-0.065-1.001-0.142-1.999-0.248-2.992c-0.717-6.762-2.39-16.24-6.761-22.683c6.16-12.07,8.798-25.501,7.463-39.007
			c-0.102-1.034-1.047-2.106-2.212-1.685c-5.053,1.827-10.014,3.854-14.873,6.152c-4.34,2.052-9.267,4.248-12.927,7.47
			c-0.833-0.51-1.664-1.003-2.485-1.476c-8.231-4.743-17.281-8.252-26.455-10.672c-16.226-4.28-33.584-4.682-49.024,1.574
			c-4.879-5.432-9.873-10.757-14.983-15.974c-2.851-2.91-5.572-5.463-8.383-1.145c-3.436,5.278-5.612,12.152-7.212,18.183
			c-1.528,5.758-2.961,12.259-2.536,18.292c-4.111,3.376-6.876,9.534-8.752,13.821c-3.527,8.06-6.115,16.536-7.766,25.175
			c-1.615,8.453-2.352,17.068-2.16,25.673c0.103,4.635,0.324,9.604,0.963,14.475c-7.509,11.719-9.765,28.075-10.072,41.663
			c-0.359,15.922,2.494,31.797,7.013,47.017c8.905,29.987,23.253,58.651,40.217,84.875c-0.772,1.068-1.598,2.103-2.506,3.091
			c-2.233,2.431-4.817,4.588-6.074,7.734c-6.362,15.919,21.576,15.712,30.392,14.82c7.212-0.73,15.152-1.831,21.277-6.004
			c5.753-3.919,9.846-9.883,13.081-15.942c3.044-5.702,5.758-11.641,8.255-17.703c5.839,2.517,12.939,2.698,19.511,2.044
			c-1.371,4.15-1.792,9.091-2.519,13.243c-7.56,3.64-10.081,15.605-0.607,18.82c5.562,1.887,12.454,0.601,18.108-0.145
			c6.785-0.894,13.396-2.45,19.887-4.576c0.822,1.115,1.91,2.12,3.312,2.958c4.411,2.635,10.564,1.464,15.391,0.948
			c6.302-0.673,12.742-1.633,18.845-3.379c10.681-3.055,15.208-13.864,19.959-23.027c5.393-10.4,9.932-21.251,13.616-32.371
			c12.768-38.535,17.946-84.991-1.36-121.995c0.007-0.009,0.015-0.014,0.022-0.022c7.524-9.265,2.482-23.898,1.048-34.454
			c-2.065-15.192-2.564-30.212,2.037-45.01c4.152-13.353,11.444-25.654,20.233-36.469c8.026-9.877,18.384-18.9,21.485-31.767
			C392.497,87.008,388.574,76.237,379.133,70.506z M273.554,417.998c-1.283,0.397-2.57,0.78-3.865,1.136
			c-0.946-3.644-0.73-7.177-0.972-10.95c-0.061-0.943-1.195-1.227-1.726-0.468c-2.498,3.572-2.52,8.346-1.798,12.556
			c-3.928,0.919-7.901,1.638-11.909,2.113c-0.022-0.025-0.035-0.051-0.058-0.076c-3.072-3.372,0.293-9.547,1.414-13.058
			c0.31-0.97-0.884-1.901-1.746-1.343c-3.822,2.475-6.766,10.158-4.822,15.01c-2.775,0.266-5.71,0.473-8.345-0.047
			c-6.801-1.341-4.693-9.548,0.587-11.377c0.637-0.221,1.294-0.71,1.424-1.425c0.652-3.575,1.318-7.148,1.91-10.733
			c0.219-1.327,0.801-3.28,0.873-5.004c0.887-0.132,1.762-0.271,2.607-0.418c10.705-1.87,20.867-5.895,30.859-10.054
			c2.595,5.453,1.766,13.332,1.242,19.422c-0.102,0.07-0.205,0.141-0.303,0.233C275.077,407.138,272.598,412.964,273.554,417.998z
			 M349.022,340.482c-4.175,20.015-10.911,39.519-20.397,57.646c-2.507,4.79-5.091,9.674-8.161,14.134
			c-2.235,3.246-5.226,4.94-8.569,6.035c-0.432-4.026-0.068-7.369,1.027-11.472c0.243-0.909-0.907-1.587-1.578-0.919
			c-3.282,3.269-4.645,8.884-3.537,13.465c-1.117,0.24-2.254,0.458-3.398,0.681c-3.507,0.685-7.192,1.378-10.876,1.802
			c0.04-2.866,0.351-5.593,1.269-8.381c0.822-2.499,2.593-5.067,2.44-7.728c-0.025-0.431-0.436-0.648-0.815-0.468
			c-2.778,1.319-4.341,5.07-5.499,7.77c-1.292,3.012-2.018,5.979-1.862,9.161c-1.147,0.047-2.289,0.069-3.416,0.029
			c-9.732-0.346-9.382-10.194-3.561-15.557c0.012-0.011,0.019-0.023,0.031-0.035c0.803-0.297,1.487-0.978,1.612-2.033
			c0.71-5.97,0.769-12.205-0.155-18.162c-0.838-5.399-4.515-9.656-6.921-14.459c-2.711-5.411-4.711-11.155-6.144-17.031
			c-1.414-5.794-1.694-11.724-2.815-17.56c-0.212-1.104-2.008-1.098-2.225,0c-2.064,10.448,1.037,22.452,4.996,32.123
			c1.46,3.565,3.357,6.792,5.218,10.077c-8.711,3.511-17.481,7.02-26.671,9.049c-4.792,1.058-9.671,1.638-14.577,1.74
			c-4.094,0.085-8.057-0.613-12.076-1.022c4.522-11.42,8.342-23.206,12.136-34.648c0.93-2.804-3.491-4.006-4.416-1.218
			c-5.045,15.198-10.556,30.275-16.811,45.02c-2.841,6.697-5.996,13.599-10.784,19.16c-4.187,4.863-9.236,7.276-15.126,8.676
			c0.233-4.609,1.649-8.492,3.481-12.892c0.479-1.149-1.122-1.704-1.87-1.089c-4.247,3.492-6.217,9.424-6.212,14.861
			c-5.288,0.844-10.716,1.221-16.072,0.811c0.082-6.63,0.944-12.32,5.795-17.596c1.161-1.263-0.567-2.914-1.854-1.854
			c-5.243,4.319-9.256,11.885-8.296,18.922c-0.659-0.107-1.319-0.207-1.973-0.342c-4.269-0.879-10.275-2.53-8.217-8.103
			c1.393-3.772,5.49-6.556,7.906-9.703c0.038-0.05,0.072-0.103,0.11-0.153c1.082-0.324,1.951-1.317,1.725-2.482
			c1.479-2.289,2.751-4.716,3.908-7.199c0.05,0.016,0.091,0.039,0.143,0.052c9.255,2.392,19.487-0.346,25.854-7.65
			c3.359-3.854,5.331-8.596,7.323-13.24c2.371-5.529,5.235-10.361,8.585-15.346c4.402-6.55,8.635-16.507,2.274-23.408
			c-5.739-6.227-17.286-4.187-24.351-0.321c1.324-5.97,2.373-12.105,1.803-18.058c-0.143-1.495-2.224-1.517-2.342,0
			c-0.727,9.291-3.525,18.666-6.08,27.601c-0.465,1.627-0.945,3.249-1.426,4.87c-0.251-0.494-0.504-0.981-0.74-1.448
			c-0.663-1.314-0.908-2.795-2.438-3.316c-0.61-0.208-1.128,0.004-1.463,0.394c-0.001-0.002-0.003-0.004-0.005-0.006
			c-1.26,1.198-0.628,3.21-0.335,4.716c0.329,1.699,1.073,3.514,2.187,4.84c0.299,0.356,0.647,0.573,1.01,0.675
			c-1.457,4.67-2.988,9.316-4.637,13.925c-3.07,8.582-6.345,17.217-10.245,25.46c-0.507,1.071-1.04,2.118-1.604,3.143
			c-15.766-24.675-29.018-51.36-37.813-79.305c-4.589-14.58-7.689-29.699-7.83-45.026c-0.071-7.753,0.575-15.574,2.071-23.185
			c1.073-5.458,2.917-10.524,4.7-15.675c0.442,1.997,0.977,3.946,1.64,5.809c0.551,1.551,3.351,1.463,3.104-0.42
			c-1.032-7.875-2.841-15.489-3.177-23.482c-0.359-8.546,0.178-17.143,1.637-25.571c1.35-7.805,3.466-15.473,6.338-22.855
			c1.439-3.698,3.075-7.302,5.097-10.72c1.884-3.184,4.744-5.751,6.415-9.003c0.244-0.476-0.163-1.12-0.727-0.945
			c-0.301,0.093-0.591,0.215-0.881,0.338c0.685-3.934,1.101-7.915,2.02-11.819c1.243-5.28,2.957-10.496,5.132-15.467
			c0.283-0.646,0.587-1.284,0.886-1.923c1.201,2.514,2.752,4.917,3.816,7.471c1.689,4.054,3.03,8.247,4.325,12.44
			c0.6,1.942,3.687,1.094,3.048-0.84c-2.149-6.5-4.674-16.423-10.169-21.386c0.358-0.84,0.734-1.394,1.794-1.199
			c2.119,0.389,4.163,3.599,5.635,5.131c3.591,3.736,7.102,7.547,10.567,11.4c-1.732,0.826-3.437,1.74-5.109,2.749
			c-1.048,0.633-0.132,2.125,0.946,1.618c17.671-8.308,37.698-8.788,56.327-3.729c8.386,2.278,16.608,5.45,24.184,9.727
			c7.576,4.277,13.235,9.887,19.37,15.9c1.247,1.222,3.421-0.356,2.46-1.898c-3.487-5.597-9.088-10.189-14.799-13.9
			c3.766-1.407,7.371-3.575,10.99-5.235c4.466-2.049,9-3.913,13.604-5.617c0.784,11.69-1.394,23.133-6.543,33.693
			c-0.749-0.748-1.547-1.433-2.422-2.005c-0.439-0.287-1.033,0.189-0.883,0.679c1.345,4.416,4.103,8.319,5.607,12.724
			c1.646,4.821,2.66,9.808,3.053,14.889c0.791,10.224-0.311,20.677-3.448,30.448c-6.251,19.474-22.247,36.082-43.362,37.923
			c-2.527,0.22-2.55,4.195,0,3.972c22.112-1.934,39.193-18.34,46.44-38.689c3.237-9.088,4.803-19.014,4.517-28.733
			c14.834,3.599,29.031,9.156,40.879,18.556c-0.382,1.389,0.243,4.656,0.162,5.922c-0.267,4.18-1.422,8.273-2.979,12.147
			c-2.907,7.227-7.161,13.869-11.034,20.596c-7.573,13.156-14.587,27.979-12.552,43.592c1.898,14.566,11.662,23.736,25.652,26.758
			c6.916,1.494,13.773,1.547,20.398-1.122c5.165-2.081,9.715-5.297,14.069-8.732C351.717,325.845,350.536,333.224,349.022,340.482z
			 M167.759,395.101c0.414-0.976,0.823-1.951,1.228-2.922c2.896-6.932,5.573-13.959,8.005-21.067c2.7-7.894,5.052-15.915,6.91-24.05
			c0.325-1.423,0.668-2.867,1.008-4.323c6.792-2.529,20.111-6.829,23.821,1.935c3.532,8.341-4.075,16.073-8.131,22.559
			c-3.99,6.381-5.783,13.971-10.304,20.036C185.062,394.293,176.128,397.104,167.759,395.101z M350.69,274.721
			c2.607,12.602,3.125,25.51,2.228,38.34c-5.525,4.493-11.365,9.146-18.267,11.26c-7.393,2.265-15.734,1.02-22.876-1.653
			c-16.472-6.163-18.55-25.256-14.332-40.154c4.006-14.149,13.12-25.363,19.575-38.305c2.752-5.516,4.941-11.406,5.534-17.578
			c0.069-0.715,0.255-2.233,0.292-3.851c1.337,1.227,2.651,2.491,3.914,3.836C339.231,239.898,347.022,256.991,350.69,274.721z
			 M384.87,100.797c-4.63,11.77-15.195,20.376-22.659,30.3c-6.634,8.82-12.195,18.472-16.06,28.825
			c-4.724,12.654-6.141,25.87-5.183,39.303c0.511,7.152,1.554,14.252,2.551,21.348c0.887,6.312,3.132,14.872-0.626,20.7
			c-1.826-3.136-3.817-6.206-6.029-9.18c-2.56-3.441-5.349-6.644-8.331-9.609c-10.869-21.734-16.378-46.219-14.041-70.507
			c2.303-23.934,12.182-47.602,27.968-65.792c7.333-8.45,18.572-17.7,30.584-13.825C385.31,76.317,389.309,89.512,384.87,100.797z"
			/>
		<path d="M142.947,253.317c1.215,0.523,2.432-0.555,1.818-1.818c-1.197-2.461-3.126-4.429-4.149-7.007
			c-1.113-2.803-1.478-5.761-1.034-8.744c0.219-1.471-1.873-2.148-2.292-0.632C135.684,240.908,136.565,250.568,142.947,253.317z"/>
		<path d="M154.919,257.65c2.282,1.954,5.615-1.364,3.313-3.313c-2.463-2.085-4.453-4.585-5.811-7.524
			c-1.217-2.635-1.644-5.657-3.089-8.158c-0.268-0.464-0.971-0.467-1.238,0C144.499,244.936,150.255,253.657,154.919,257.65z"/>
		<path d="M168.071,255.549c-1.281-2.054-2.033-4.891-3.837-6.528c-0.445-0.404-1.33-0.429-1.62,0.209
			c-2.509,5.525,4.039,13.494,8.618,15.88c2.047,1.067,4.326-1.583,2.542-3.295C171.725,259.849,169.587,257.98,168.071,255.549z"/>
		<path d="M300.316,358.895c-0.056-1.365,0.241-2.773-0.141-4.099c-0.358-1.243-1.922-1.646-2.847-0.752
			c-2.725,2.635-1.563,7.65-0.27,10.675c0.978,2.289,4.821,0.657,4.031-1.699C300.641,361.68,300.374,360.308,300.316,358.895z"/>
		<path d="M309.605,356.231c-0.425-0.545-1.282-0.39-1.729,0c-0.911,0.794-1.034,2.329-1.115,3.477
			c-0.097,1.392,0.145,2.64,0.681,3.922c0.349,0.833,1.005,1.412,1.965,1.283c0.825-0.112,1.616-0.867,1.552-1.759
			c-0.091-1.268-0.222-2.483-0.432-3.739C310.336,358.276,310.33,357.161,309.605,356.231z"/>
		<path d="M319.948,358.387c-0.393-0.316-1.032-0.348-1.303,0.168c-1.086,2.071-1.086,5.191-0.36,7.371
			c0.403,1.211,2.465,1.841,3.073,0.402c0.641-1.518,0.788-2.779,0.445-4.401C321.523,360.609,321.012,359.242,319.948,358.387z"/>
		<path d="M332.092,358.881c-0.59-0.366-1.235-0.073-1.613,0.423c-0.637,0.834-0.631,2.03-0.925,3.015
			c-0.321,1.074-0.699,2.036-1.331,2.967c-1.621,2.388,2.328,4.722,3.884,2.27c0.893-1.408,1.515-2.998,1.55-4.682
			C333.687,361.44,333.392,359.687,332.092,358.881z"/>
		<path d="M353.683,86.813c-1.999-0.796-4.163,1.255-5.317,2.674c-1.501,1.846-2.223,3.896-2.264,6.275
			c-0.043,2.45,3.907,3.108,4.375,0.592c0.277-1.491,0.812-2.985,1.62-4.273c0.763-1.215,2.277-2.156,2.516-3.629
			C354.739,87.678,354.415,87.105,353.683,86.813z"/>
		<path d="M358.721,97.278c0.44-0.765,1.198-1.596,1.337-2.48c0.121-0.768-0.187-1.705-1.068-1.88
			c-2.957-0.588-5.108,3.014-5.474,5.489c-0.181,1.223,0.305,2.464,1.601,2.82c1.08,0.297,2.638-0.369,2.821-1.601
			C358.076,98.697,358.298,98.014,358.721,97.278z"/>
		<path d="M364.933,101.581c0.453-0.612-0.022-1.58-0.709-1.743c-0.478-0.114-0.705-0.237-1.218-0.158
			c-0.338,0.052-0.671,0.121-0.997,0.226c-0.844,0.271-1.558,0.726-2.245,1.275c-0.632,0.504-1.185,1.142-1.591,1.844
			c-0.584,1.01-0.615,1.995-0.433,3.116c0.14,0.862,1.09,1.532,1.888,1.627c0.938,0.112,1.739-0.303,2.263-1.084
			c0.365-0.544,0.619-1.117,0.841-1.736c-0.003,0.007,0.18-0.46,0.168-0.452c0.099-0.218,0.205-0.438,0.322-0.647
			c0.215-0.385,0.456-0.711,0.756-1.047C364.342,102.392,364.617,102.009,364.933,101.581z"/>
		<path d="M369.367,104.651c-2.48,0.999-4.778,2.725-5.354,5.466c-0.216,1.028,0.215,2.092,1.226,2.499
			c0.918,0.369,2.168,0.093,2.645-0.867c0.833-1.677,1.461-3.445,2.843-4.762C371.68,106.078,370.698,104.115,369.367,104.651z"/>
		<path d="M327.976,129.963c-1.792,0.298-3.402,1.6-4.441,3.028c-1.245,1.711-1.44,3.687-0.57,5.596
			c0.591,1.296,2.432,1.029,3.092,0c0.739-1.15,1.133-2.379,1.637-3.636c0.455-1.135,1.093-2.054,1.762-3.063
			C330.15,130.84,329.007,129.792,327.976,129.963z"/>
		<path d="M335.249,132.47c-1.9-0.891-3.68,1.211-4.679,2.592c-1.423,1.968-2.021,4.282-0.944,6.544
			c0.874,1.835,3.529,1.154,4.071-0.532c0.512-1.591,0.268-3.32,0.933-4.876C334.979,135.381,336.778,133.186,335.249,132.47z"/>
		<path d="M340.747,137.133c-1.806,1.913-2.685,4.978-2.988,7.52c-0.108,0.907,0.735,1.817,1.555,2.042
			c0.96,0.264,1.842-0.201,2.392-0.973c0.781-1.097,1.247-2.178,1.708-3.442c0.439-1.204,0.9-2.376,0.874-3.68
			C344.254,136.857,342.012,135.792,340.747,137.133z"/>
		<path d="M322.359,180.46c-0.965,1.915-0.677,4.523-0.515,6.604c0.226,2.89,4.272,2.896,4.498,0
			c0.163-2.081,0.451-4.689-0.515-6.604C325.168,179.15,323.019,179.15,322.359,180.46z"/>
		<path d="M330.218,184.402c-1.389,2.281-1.017,5.07-0.004,7.39c0.794,1.817,3.586,0.807,3.581-0.97
			c-0.005-1.967-0.067-4.193-0.778-6.054C332.559,183.567,330.946,183.207,330.218,184.402z"/>
		<path d="M211.097,156.201c0.824-0.111,1.584-0.855,1.533-1.737c-0.127-2.229-0.423-4.521-1.298-6.581
			c-0.325-0.764-1.395-0.567-1.772,0c-1.353,2.036-1.331,4.84-0.403,7.051C209.502,155.757,210.149,156.329,211.097,156.201z"/>
		<path d="M223.972,156.94c1.212-0.511,1.922-1.869,1.555-3.169c-0.172-0.611-0.246-1.248-0.439-1.853
			c-0.002-0.013-0.003-0.017-0.005-0.028c-0.011-0.132-0.021-0.264-0.023-0.397c-0.009-0.48-0.006-0.929-0.144-1.4
			c-0.273-0.931-1.058-1.608-2.015-1.736c-1.042-0.14-1.803,0.358-2.415,1.157c-0.623,0.813-0.712,2.134-0.719,3.125
			c-0.008,1.188,0.308,2.158,0.851,3.203C221.234,157.027,222.802,157.434,223.972,156.94z"/>
		<path d="M235.249,160.682c1.161,0.49,2.679-0.126,2.976-1.429c0.244-1.067,0.721-2.311,0.378-3.394
			c-0.321-1.012-1.505-1.581-2.462-1.002c-0.981,0.593-1.423,1.727-1.947,2.696C233.567,158.716,234.009,160.159,235.249,160.682z"
			/>
		<path d="M159.539,198.663c0.086,0.03,0.172,0.061,0.259,0.091c0.452,0.16,0.886-0.029,1.209-0.331
			c0.453,0.351,3.316-0.622,3.378-0.64c1.329-0.375,2.674-0.664,4.028-0.935c3.416-0.683,6.862-1.035,10.338-1.233
			c2.576-0.146,2.525-3.734,0-3.967c-4.574-0.422-9.141,0.003-13.539,1.363c-1.722,0.533-6.964,1.617-6.659,4.357
			C158.625,198.004,158.929,198.447,159.539,198.663z"/>
		<path d="M178.233,198.202c-3.938,0.625-7.698,2.617-10.945,4.884c-1.399,0.977-2.717,2.077-3.934,3.273
			c-0.836,0.822-1.586,1.661-2.295,2.595c-0.364,0.48-0.811,0.721-0.835,0.897c-0.195,0.076-0.375,0.228-0.509,0.484
			c-0.286,0.548-0.333,0.86-0.171,1.454c0.159,0.58,0.664,0.885,1.229,0.936c1.005,0.09,1.478-0.427,2.229-1.015
			c1.843-1.444,3.483-3.074,5.41-4.427c3.524-2.472,7.366-3.922,11.281-5.622C181.816,200.738,180.164,197.895,178.233,198.202z"/>
		<path d="M248.532,206.18c-1.772,0.831-0.872,3.691,0.983,3.628c2.658-0.09,5.296-0.613,7.963-0.328
			c2.515,0.27,4.917,1.797,7.415,1.68c0.428-0.02,0.919-0.47,0.72-0.944c-1.127-2.683-4.48-3.823-7.12-4.522
			C255.142,204.807,251.711,204.689,248.532,206.18z"/>
		<path d="M244.411,212.907c-1.416,0.4-1.889,2.62-0.435,3.326c2.522,1.224,5.241,1.321,7.649,2.936
			c2.395,1.606,3.708,4.081,5.752,6.021c0.515,0.489,1.236,0.102,1.305-0.54C259.328,218.613,250.134,211.289,244.411,212.907z"/>
	</g>
</g>
</svg>
